{"accessors":[{"bufferView":0,"byteOffset":0,"componentType":5126,"normalized":false,"count":8,"type":"VEC3","max":[0.5,0.5,0.5],"min":[-0.5,-0.5,-0.5]},{"bufferView":1,"byteOffset":0,"componentType":5126,"normalized":false,"count":8,"type":"VEC3","max":[0.5,0.99,0.5],"min":[0.0,0.0,0.0]}],"asset":{"generator":"pygltflib@v1.16.2","version":"2.0"},"bufferViews":[{"buffer":0,"byteOffset":0,"byteLength":96,"target":34962},{"buffer":0,"byteOffset":96,"byteLength":96,"target":34962}],"buffers":[{"byteLength":192}],"meshes":[{"primitives":[{"attributes":{"POSITION":0,"COLOR_0":1},"mode":0}]}],"nodes":[{"mesh":0}],"scene":0,"scenes":[{"nodes":[0]}]}