{
  "accessors": [
    {
      "bufferView": 0,
      "byteOffset": 0,
      "componentType": 5126,
      "count": 99,
      "type": "VEC3",
      "max": [
        1000,
        100,
        0
      ],
      "min": [
        0,
        -100,
        -300
      ],
      "name": "POSITION"
    },
    {
      "bufferView": 0,
      "byteOffset": 12,
      "componentType": 5121,
      "normalized": true,
      "count": 99,
      "type": "VEC4",
      "name": "COLOR_0"
    }
  ],
  "asset": {
    "generator": "Aspose.3D 24.6.0",
    "version": "2.0"
  },
  "buffers": [
    {
      "uri": "data:application/octet-stream;base64,",
      "byteLength": 1588
    }
  ],
  "bufferViews": [
    {
      "buffer": 0,
      "byteOffset": 0,
      "byteLength": 1584,
      "byteStride": 16,
      "target": 34962
    }
  ],
  "meshes": [
    {
      "primitives": [
        {
          "attributes": {
            "POSITION": 0,
            "COLOR_0": 1
          },
          "mode": 0
        }
      ]
    }
  ],
  "nodes": [
    {
      "mesh": 0,
      "name": "Node #0"
    }
  ],
  "scene": 0,
  "scenes": [
    {
      "nodes": [
        0
      ]
    }
  ]
}