<svg class="icon" version="1.0" xmlns="http://www.w3.org/2000/svg"
 width="24" height="24" viewBox="0 0 840.000000 959.000000"
 preserveAspectRatio="xMidYMid meet">

<g transform="translate(0.000000,959.000000) scale(0.100000,-0.100000)"
 stroke="none">
<path d="M2345 9154 c-21 -14 -106 -80 -189 -148 -83 -67 -482 -387 -886 -710
-404 -324 -756 -610 -783 -636 l-47 -49 0 -184 c0 -212 13 -183 -126 -281 -53
-38 -87 -69 -97 -92 -16 -32 -17 -241 -17 -2695 0 -2837 -2 -2699 46 -2740 11
-9 235 -135 499 -279 264 -144 716 -392 1005 -550 643 -352 640 -350 668 -350
13 0 236 54 495 119 797 202 2300 581 3612 911 462 116 1009 254 1215 306 210
53 386 102 400 112 14 10 33 34 42 53 17 32 18 166 18 2371 0 1631 -3 2345
-11 2365 -22 59 -44 70 -323 162 -925 306 -1347 441 -1380 441 -32 0 -325
-115 -991 -390 l-70 -29 -5 357 c-4 240 -9 366 -17 383 -20 45 -61 68 -202
113 l-136 44 -5 210 -5 211 -29 30 c-19 20 -65 43 -140 71 -151 57 -1539 571
-1701 630 -247 90 -680 251 -703 260 -42 18 -97 11 -137 -16z m871 -1418 c504
-145 525 -151 536 -169 12 -18 10 -1031 -2 -1061 -11 -29 -40 -33 -113 -16
-23 5 -233 48 -467 95 -234 47 -435 90 -447 95 l-23 10 0 579 c0 542 1 581 18
590 9 6 20 11 23 11 3 0 217 -60 475 -134z m-1092 -2 c14 -14 16 -79 16 -563
0 -509 -1 -549 -17 -564 -10 -8 -99 -51 -198 -95 -448 -199 -437 -194 -462
-183 l-23 11 0 504 c0 446 2 505 16 517 41 34 621 389 636 389 9 0 24 -7 32
-16z m2419 -379 c253 -73 407 -122 415 -132 16 -22 18 -944 2 -974 -6 -10 -20
-19 -31 -19 -18 0 -621 120 -754 150 -27 6 -55 16 -62 22 -10 8 -13 118 -13
529 0 483 1 519 18 528 9 6 18 11 20 11 1 0 184 -52 405 -115z m-3530 -297
c16 -12 17 -50 15 -478 l-3 -465 -215 -97 c-118 -53 -223 -97 -232 -97 -9 -1
-24 6 -32 15 -14 13 -16 66 -16 428 0 315 3 416 13 428 6 8 37 30 67 48 30 19
127 78 214 132 88 54 162 98 166 98 3 0 14 -6 23 -12z m5994 -409 c142 -41
253 -78 261 -87 16 -20 18 -753 2 -783 -6 -10 -21 -19 -34 -19 -13 0 -133 23
-267 50 -172 36 -248 55 -256 67 -10 13 -13 111 -13 408 0 337 2 394 16 413 8
12 21 22 29 22 7 0 125 -32 262 -71z m663 -190 c118 -34 221 -66 228 -72 9 -7
12 -94 12 -372 0 -318 -2 -364 -16 -376 -13 -11 -52 -5 -236 32 -122 24 -227
50 -235 57 -10 11 -13 90 -13 387 0 326 2 376 16 389 8 9 18 16 22 16 4 0 104
-28 222 -61z m-4460 -318 c135 -22 306 -50 380 -61 107 -17 139 -25 153 -42
16 -19 17 -59 17 -539 0 -510 0 -519 -21 -540 -16 -16 -28 -19 -62 -15 -23 3
-247 22 -497 42 -250 20 -461 41 -467 46 -10 8 -13 138 -13 590 l0 579 21 8
c13 4 69 0 133 -11 61 -9 221 -35 356 -57z m-1088 -8 c17 -15 18 -46 18 -564
0 -469 -2 -550 -15 -562 -15 -15 -35 -20 -425 -86 -153 -27 -231 -36 -243 -30
-16 9 -17 42 -15 522 l3 512 315 112 c173 62 321 112 329 112 8 1 23 -6 33
-16z m2420 -209 c303 -49 406 -69 416 -82 16 -21 18 -943 1 -974 -13 -24 -7
-24 -529 18 -282 22 -306 26 -322 45 -17 20 -18 60 -18 518 0 433 2 499 16
519 8 12 19 22 24 22 5 0 190 -30 412 -66z m-3524 -176 c19 -19 17 -921 -2
-937 -7 -6 -112 -28 -234 -48 -185 -31 -223 -35 -236 -24 -14 12 -16 61 -16
431 0 375 2 419 16 431 20 17 410 157 440 158 11 1 25 -4 32 -11z m6246 -277
c14 -12 16 -53 16 -397 l0 -384 -22 -14 c-20 -12 -57 -11 -273 6 -190 15 -254
24 -267 36 -17 14 -18 47 -18 412 0 406 1 421 39 432 24 7 507 -76 525 -91z
m453 -61 c94 -15 177 -31 182 -35 8 -4 11 -126 11 -375 0 -344 -1 -370 -18
-379 -24 -13 -447 22 -467 39 -13 11 -15 67 -15 389 0 288 3 380 13 390 14 15
47 12 294 -29z m-4312 -871 c235 -8 315 -15 333 -25 l22 -14 0 -524 c0 -484
-1 -525 -17 -545 -17 -19 -38 -21 -515 -42 -408 -19 -499 -20 -512 -10 -14 12
-16 78 -16 585 0 444 3 575 13 585 13 14 50 14 692 -10z m-1285 -9 c20 -20 20
-33 20 -561 0 -353 -4 -547 -10 -560 -14 -25 -42 -25 -382 10 -170 17 -283 33
-293 41 -13 11 -15 77 -15 516 l0 504 23 10 c12 5 155 20 317 34 162 13 301
24 308 25 6 0 21 -8 32 -19z m2454 -35 c235 -10 374 -19 383 -26 10 -9 13
-103 13 -494 0 -431 -2 -484 -16 -496 -21 -17 -808 -53 -836 -38 -17 9 -18 37
-18 527 0 390 3 521 12 530 15 15 17 15 462 -3z m1414 -55 c357 -13 518 -22
528 -31 12 -10 14 -211 14 -1419 0 -1114 -3 -1410 -12 -1418 -10 -8 -1231
-322 -1252 -322 -3 0 -12 7 -20 16 -14 14 -16 172 -16 1594 0 1427 2 1580 16
1594 13 14 33 15 122 11 59 -4 338 -15 620 -25z m-4977 10 c18 -10 19 -26 19
-476 l0 -464 -22 -9 c-32 -11 -442 32 -462 48 -14 12 -16 64 -16 431 0 363 2
419 15 430 10 8 93 20 223 30 114 10 211 18 215 19 5 0 17 -4 28 -9z m6051
-49 c125 -6 193 -13 203 -21 22 -18 23 -771 1 -793 -15 -15 -84 -21 -377 -33
-156 -7 -156 -7 -172 17 -15 21 -17 67 -17 409 0 333 2 389 16 408 18 26 38
26 346 13z m682 -28 c84 -4 143 -11 154 -19 16 -11 17 -41 14 -371 -2 -260 -6
-361 -15 -370 -18 -18 -452 -39 -472 -23 -13 11 -15 69 -15 389 0 280 3 380
12 389 14 14 114 15 322 5z m154 -1035 c9 -9 12 -106 12 -375 l0 -363 -22 -10
c-26 -10 -399 -72 -436 -72 -14 0 -28 6 -33 13 -5 8 -9 184 -9 392 l0 377 23
10 c25 11 286 37 388 39 39 0 70 -4 77 -11z m-636 -55 c17 -15 18 -41 18 -393
0 -285 -3 -380 -12 -393 -10 -13 -71 -27 -248 -57 -129 -22 -245 -42 -257 -45
-15 -3 -30 2 -43 15 -19 19 -20 32 -20 418 0 368 1 400 18 415 13 12 70 20
237 35 283 25 285 25 307 5z m-6469 -93 c115 -21 215 -44 223 -51 12 -10 14
-144 14 -903 0 -919 0 -916 -38 -916 -13 0 -345 177 -425 227 l-37 23 0 814
c0 727 2 816 16 830 8 9 21 16 27 16 7 0 106 -18 220 -40z m4159 -107 c17 -15
18 -44 18 -493 0 -419 -2 -479 -15 -490 -18 -15 -811 -151 -832 -143 -8 3 -19
17 -24 30 -5 14 -9 238 -9 513 0 451 1 489 18 510 16 19 36 23 242 41 124 10
290 25 370 33 199 18 211 18 232 -1z m-3252 -64 c118 -22 260 -49 314 -59 69
-12 104 -24 113 -36 11 -14 13 -224 13 -1095 0 -966 -2 -1079 -16 -1093 -29
-29 -9 -38 -474 217 l-205 112 -3 985 c-2 917 -1 986 15 998 9 6 19 12 23 12
3 0 102 -18 220 -41z m2050 -55 c6 -15 10 -228 10 -534 0 -469 -1 -509 -17
-528 -16 -18 -86 -32 -496 -101 -263 -45 -488 -81 -500 -81 -13 0 -28 5 -35
12 -18 18 -17 1151 1 1167 7 6 148 22 313 36 164 14 362 32 439 39 77 8 170
14 208 15 64 1 68 0 77 -25z"/>
<path d="M5433 4269 c-10 -10 -13 -274 -13 -1250 0 -1072 2 -1238 15 -1249 11
-9 600 -147 862 -202 91 -19 83 -155 83 1327 0 1152 -2 1314 -15 1325 -10 8
-119 18 -337 30 -597 33 -582 33 -595 19z"/>
</g>
</svg>
