<svg xmlns="http://www.w3.org/2000/svg" class="icon" width="24" height="24" viewBox="0 0 32.001 32">
  <g id="cloud-data-ops-svgrepo-com" transform="translate(0.001)">
    <rect id="Rectangle_1702" data-name="Rectangle 1702" width="3" height="10" transform="translate(28 18)"/>
    <rect id="Rectangle_1703" data-name="Rectangle 1703" width="3" height="14" transform="translate(24 14)"/>
    <rect id="Rectangle_1704" data-name="Rectangle 1704" width="3" height="6" transform="translate(20 22)"/>
    <path id="Path_3202" data-name="Path 3202" d="M22.175,10,23.76,8.734A9.987,9.987,0,0,0,6.17,13.115,7.505,7.505,0,0,0,.054,21.409,7.684,7.684,0,0,0,7.769,28H16V26H7.694a5.632,5.632,0,0,1-5.6-4.486,5.506,5.506,0,0,1,4.434-6.431l1.349-.244.214-1.11a8.206,8.206,0,0,1,6.743-6.643,7.967,7.967,0,0,1,3.014.13A7.8,7.8,0,0,1,22.175,10Z"/>
    <rect id="_Transparent_Rectangle_" data-name="&lt;Transparent Rectangle&gt;" width="24" height="24" fill="none"/>
  </g>
</svg>
