<svg xmlns="http://www.w3.org/2000/svg" class="icon" width="24" height="24" viewBox="0 0 24.337 24.338">
  <g id="cloud-computing-svgrepo-com" transform="translate(-12 -12)">
    <g id="Group_237" data-name="Group 237" transform="translate(12 12)">
      <g id="Group_236" data-name="Group 236" transform="translate(0 0)">
        <path id="Path_3203" data-name="Path 3203" d="M23.915,34.311A1.614,1.614,0,1,1,25.529,32.7,1.617,1.617,0,0,1,23.915,34.311ZM14.031,22.44a1.561,1.561,0,0,1,1.639-1.356,1.018,1.018,0,0,0,.983-1.013v-.03c.01-1.783,1.743-3.233,3.869-3.238a1.018,1.018,0,0,0,.969-.71,3.231,3.231,0,0,1,3.169-2.061,3.08,3.08,0,0,1,3.268,2.608,1.075,1.075,0,0,0,1.2.939,2.789,2.789,0,0,1,2.995,2.439.978.978,0,0,0,.834,1.1,1.487,1.487,0,0,1,1.346,1.331A1.569,1.569,0,0,1,32.6,23.811H15.74a1.573,1.573,0,0,1-1.709-1.371Zm20.433,9.243H27.422A3.664,3.664,0,0,0,24.933,29.2V25.832H32.6a3.582,3.582,0,0,0,3.74-3.392,3.4,3.4,0,0,0-2.245-3.109,4.831,4.831,0,0,0-4.3-3.745A5.24,5.24,0,0,0,24.655,12a5.384,5.384,0,0,0-4.833,2.811A5.684,5.684,0,0,0,14.7,19.187,3.444,3.444,0,0,0,12,22.44a3.582,3.582,0,0,0,3.74,3.392H22.9V29.2a3.664,3.664,0,0,0-2.488,2.483H13.371a1.013,1.013,0,0,0,0,2.026h7.043a3.647,3.647,0,0,0,7,0h7.043a1.013,1.013,0,0,0,0-2.026Z" transform="translate(-12 -12)"/>
      </g>
    </g>
  </g>
</svg>
