<svg class="icon icon--stroke" xmlns="http://www.w3.org/2000/svg" width="19.751" height="19.02" viewBox="0 0 19.751 19.02"><g transform="translate(0.75 0.75)"><path  d="M.749,92.32H18.391" transform="translate(-0.749 -74.8)"/><path  d="M2.655,88H4.886a.4.4,0,0,1,.406.389V91.5H2.249V88.389A.4.4,0,0,1,2.655,88Z" transform="translate(-1.032 -73.984)"/><path  d="M10.155,79.36h2.231a.4.4,0,0,1,.406.389V89.872H9.749V79.749A.4.4,0,0,1,10.155,79.36Z" transform="translate(-2.449 -72.352)"/><path  d="M17.655,83.68h2.231a.4.4,0,0,1,.406.389v6.619H17.25V84.069A.4.4,0,0,1,17.655,83.68Z" transform="translate(-3.866 -73.168)"/><path  d="M6.124,74.916,2.866,78.041" transform="translate(-1.149 -71.513)"/><path  d="M13.428,75.845l-3.791-.973" transform="translate(-2.428 -71.504)"/><path  d="M19.716,72.772l-2.9,2.181" transform="translate(-3.783 -71.108)"/><path  d="M7.966,75.217a1.169,1.169,0,1,0-1.217-1.168A1.193,1.193,0,0,0,7.966,75.217Z" transform="translate(-1.882 -71.128)"/><path  d="M21.467,73.056a1.169,1.169,0,1,0-1.217-1.168A1.193,1.193,0,0,0,21.467,73.056Z" transform="translate(-4.432 -70.72)"/><path  d="M15.467,77.376a1.169,1.169,0,1,0-1.217-1.168A1.193,1.193,0,0,0,15.467,77.376Z" transform="translate(-3.299 -71.536)"/><path  d="M1.966,80.977a1.169,1.169,0,1,0,0-2.336,1.169,1.169,0,1,0,0,2.336Z" transform="translate(-0.749 -72.216)"/></g></svg>