<svg class="icon" xmlns="http://www.w3.org/2000/svg" width="19.811" height="19.847" viewBox="0 0 19.811 19.847"><defs></defs><path d="M4.192,7.926c-.649-2.349,1.026-3.36.861-5.368A9.97,9.97,0,0,0,1,10.55c0,5.652,4.927,9.021,8.408,9.758a4.252,4.252,0,0,0,.649.1c1.241-3.164-1.1-6.693-2.644-8.991C6.125,9.507,4.956,10.691,4.192,7.926Z" transform="translate(-1 -0.625)"/><path d="M18.965,11.565c-1-.38-1.856.915-1.932-2.583A3.575,3.575,0,0,1,18.067,6.5a1.912,1.912,0,0,1,.452-.216c-.118-.216-.248-.424-.385-.631-.023.012-.043.028-.068.038-.775.362-.883.469-1.241,0a.978.978,0,0,1,.215-1.442A9.917,9.917,0,0,0,9.812,1.009c1.258.017,2.759.949,1.993,2.437.115-.236-2.5-.8-2.854-.8-.479,0,.977-1.792.844-1.637a9.983,9.983,0,0,0-4.1.882c.677.439,1.433.286,2.2.474a1.87,1.87,0,0,1,.682.28,2.317,2.317,0,0,0-.682-.28c-1.127-.13.546,2.964.483,2.552A1.429,1.429,0,0,1,11.2,4.827a2.321,2.321,0,0,1-.52,1.405C9.81,7.382,9.63,9.429,9.2,8.906c-4.088-1.675-3.638.54-2.3,2.021,2.149,2.37,1.058.243,3.872,1.484,2.263,1,4.987,1.234,4.322,1.985-2.011,2.277-1.588,3.784-5.144,6.451.3-.008,1.241-.1,1.434-.134a10.1,10.1,0,0,0,8.3-8.933,1.489,1.489,0,0,1-.716-.215Z" transform="translate(0.129 -1)"/></svg>