<?xml version="1.0" encoding="UTF-8"?><svg class="icon" xmlns="http://www.w3.org/2000/svg" width="28.5" height="28.5"  viewBox="0 0 500 500"><defs><style>.cls-1,.cls-2{stroke-width:0px;}.cls-2{fill:#ff000000;}</style></defs><path class="cls-1" d="m173.98,0C179.98,0,185.98,0,191.98,0c2.1.38,4.18.85,6.29,1.13,7.06.92,14.18,1.45,21.17,2.7,20.49,3.65,39.44,11.42,57.53,21.59,2.01,1.13,5.59,1.18,7.68.17,9.19-4.47,19.01-4.96,28.31-2.71,26.5,6.41,40.59,33.73,29.52,60.3-.93,2.23-1.1,5.71.01,7.69,11.32,20.16,19.47,41.35,22.64,64.37,2.89,21.06,3.08,42.16-.78,63-9.07,48.99-35.18,87.34-75.28,116.3-22.3,16.11-47.24,26.23-74.5,30.4-7.18,1.1-14.4,2.01-21.6,3.01h-17c-3.93-.42-7.86-.79-11.78-1.26-25.7-3.1-49.99-10.55-72.29-23.9-3.22-1.93-5.86-2.17-9.21-.35-8.65,4.7-18.36,4.86-27.3,2.76-27.05-6.37-40.89-33.84-29.85-59.94,1.48-3.49,1.43-5.97-.46-9.19C11.77,253.43,3.39,228.96,1.41,202.84c-1.91-25.25-.53-50.41,7.46-74.88,12.46-38.16,35.26-68.73,67.27-92.53C99.34,18.19,125.25,7.12,153.98,2.98,160.65,2.02,167.31,1,173.98,0Zm10.01,337.02c4,0,8.01.23,11.99-.07,3.96-.3,7.89-1.06,11.81-1.74,50.11-8.78,87.84-35.25,111.79-80.12,14.76-27.66,20.89-57.34,16.68-88.95-2.63-19.7-8.63-38.07-17.72-55.61-1.64-3.17-3.62-3.94-7.22-3.24-29.44,5.74-55.82-20-50.77-49.7.76-4.48-.16-6.7-4.04-8.67-28.34-14.37-57.99-21.25-89.94-17.23-21.61,2.72-42.08,8.87-60.38,20.48C51.51,86.88,26.33,136.67,31.91,201.45c1.72,19.95,8.41,38.48,17.84,56.08,1.6,2.98,3.28,3.68,6.73,3.07,30.18-5.35,55.71,19.26,51.03,49.42-.78,5.03.53,7.18,4.65,9.26,22.6,11.46,46.41,17.93,71.84,17.73Zm119.01-259.61c6.7.1,13.04-6.04,13.01-12.58-.03-6.44-6.47-12.86-12.9-12.87-6.46,0-12.32,5.9-12.45,12.56-.14,7.13,5.28,12.8,12.35,12.9Zm-225.66,225.71c-.01-7.07-5.6-12.55-12.71-12.49-6.62.06-12.54,5.81-12.66,12.31-.12,6.36,6.27,12.9,12.73,13.04,6.57.14,12.66-6.06,12.64-12.87Z"/><path class="cls-2" d="m192.98,367.95c7.2-1,14.41-1.91,21.6-3.01,27.26-4.17,52.2-14.3,74.5-30.4,40.1-28.96,66.2-67.3,75.28-116.3,3.86-20.84,3.67-41.94.78-63-3.16-23.02-11.31-44.21-22.64-64.37-1.11-1.98-.94-5.47-.01-7.69,11.07-26.57-3.02-53.88-29.52-60.3-9.29-2.25-19.12-1.76-28.31,2.71-2.09,1.02-5.67.96-7.68-.17-18.09-10.17-37.05-17.94-57.53-21.59-7-1.25-14.12-1.78-21.17-2.7-2.11-.27-4.19-.75-6.29-1.13,58.66,0,117.32,0,175.98,0v367.95c-58.33,0-116.65,0-174.98,0Z"/><path class="cls-2" d="m173.98,0c-6.67,1-13.33,2.02-20,2.98-28.73,4.14-54.64,15.21-77.83,32.45C44.14,59.22,21.33,89.79,8.87,127.95.88,152.43-.5,177.59,1.41,202.84c1.98,26.12,10.36,50.59,23.68,73.23,1.9,3.22,1.94,5.7.46,9.19-11.05,26.1,2.8,53.57,29.85,59.94,8.94,2.11,18.65,1.94,27.3-2.76,3.35-1.82,5.99-1.58,9.21.35,22.3,13.35,46.59,20.79,72.29,23.9,3.92.47,7.85.84,11.78,1.26H0C0,245.3,0,122.65,0,0,57.99,0,115.99,0,173.98,0Z"/><path class="cls-2" d="m183.99,337.02c-25.43.2-49.24-6.27-71.84-17.73-4.12-2.09-5.43-4.24-4.65-9.26,4.68-30.16-20.85-54.77-51.03-49.42-3.44.61-5.13-.09-6.73-3.07-9.43-17.6-16.12-36.12-17.84-56.08-5.58-64.78,19.6-114.57,74.28-149.27,18.3-11.61,38.77-17.76,60.38-20.48,31.94-4.02,61.59,2.86,89.94,17.23,3.87,1.96,4.8,4.18,4.04,8.67-5.04,29.69,21.34,55.43,50.77,49.7,3.59-.7,5.58.07,7.22,3.24,9.08,17.53,15.09,35.91,17.72,55.61,4.21,31.61-1.91,61.29-16.68,88.95-23.95,44.87-61.68,71.34-111.79,80.12-3.92.69-7.85,1.45-11.81,1.74-3.97.3-7.99.07-11.99.07Zm-110.38-153.1c-1.9,60.28,50.86,110.84,110.4,110.87,62.37.03,111-54.18,110.68-111.93-.31-56.31-51.42-110.44-112.1-109.54-56.47.84-110.83,49.07-108.98,110.6Z"/><path class="cls-2" d="m303,77.41c-7.07-.1-12.49-5.77-12.35-12.9.13-6.66,5.99-12.57,12.45-12.56,6.43,0,12.87,6.43,12.9,12.87.03,6.55-6.31,12.68-13.01,12.58Z"/><path class="cls-2" d="m77.33,303.12c.01,6.81-6.07,13-12.64,12.87-6.46-.14-12.85-6.68-12.73-13.04.12-6.5,6.04-12.25,12.66-12.31,7.12-.07,12.7,5.42,12.71,12.49Z"/><path class="cls-1" d="m73.6,183.92c-1.85-61.53,52.51-109.76,108.98-110.6,60.68-.9,111.79,53.23,112.1,109.54.32,57.75-48.31,111.96-110.68,111.93-59.54-.03-112.3-50.59-110.4-110.87Zm30.17.12c.57,44.63,33.86,78.59,77.27,79.97,47.97,1.52,81.51-34.7,82.98-76.58,1.69-48.01-34.57-82.76-78.08-83.5-48.35-.82-81.77,36.29-82.17,80.11Z"/><path class="cls-2" d="m103.77,184.03c.4-43.81,33.82-80.93,82.17-80.11,43.51.74,79.77,35.49,78.08,83.5-1.47,41.87-35.01,78.1-82.98,76.58-43.41-1.38-76.71-35.34-77.27-79.97Z"/></svg>