<svg class="icon" xmlns="http://www.w3.org/2000/svg" width="23.969" height="23.969" viewBox="0 0 23.969 23.969"><defs></defs><path  d="M12.738,5.122a.662.662,0,0,0,.08-.838.659.659,0,0,0-.126-.206,24.814,24.814,0,0,0-2.047-1.983A7.86,7.86,0,0,1,13.2,3.75a7.8,7.8,0,0,1,1.619,2.469c-.119-.14-.239-.276-.358-.407a.662.662,0,1,0-.981.89,19.622,19.622,0,0,1,2.236,3.008.662.662,0,0,0,1.233-.362c0-.017,0-.035,0-.053A11.307,11.307,0,0,0,14.584,3.3l.35-.35A.662.662,0,1,0,14,2.014l-.35.35A11.307,11.307,0,0,0,7.654,0H7.579L7.548,0l-.035,0-.022,0L7.449.021l-.015,0L7.388.04,7.371.047,7.33.064,7.3.078,7.275.093,7.239.117,7.223.128c-.013.01-.026.02-.039.031l-.01.008C7.162.178,7.151.19,7.139.2L7.128.212,7.1.246,7.086.263,7.064.295,7.049.318l-.006.01L7.03.351,7.018.375C7.012.388,7.006.4,7,.414L6.993.433c-.006.016-.011.032-.016.048l0,.012c-.005.019-.009.038-.012.057V.555c0,.021-.006.043-.007.064h0a.643.643,0,0,0,0,.065v0c0,.021,0,.041.005.061V.756c0,.02.007.039.011.058V.82c0,.02.011.04.017.059v0a.659.659,0,0,0,.217.3l.006,0,.039.027.017.011.011.007a22.252,22.252,0,0,1,4.1,3.377L8.45,7.542,6.019,5.132l1.4-1.383a.662.662,0,0,0-.009-.95L6.568,2l-.017-.016A9.416,9.416,0,0,0,4.331.491L4.293.474A6.708,6.708,0,0,0,1.81,0,1.814,1.814,0,0,0,0,1.815v.019A6.771,6.771,0,0,0,.507,4.412,6.751,6.751,0,0,0,1.953,6.6l0,0,.812.812a.662.662,0,0,0,.934,0L5.077,6.063,7.514,8.479,3.169,12.831a2.12,2.12,0,0,0-2.51.385l-.01.01-.468.5a.662.662,0,0,0,.01.919l2.081,2.111a.662.662,0,0,0,.471.2h.008a.662.662,0,0,0,.474-.208l.463-.492a2.176,2.176,0,0,0,.4-2.462Zm-9.5.9-.345-.345A5.439,5.439,0,0,1,1.324,1.833V1.815a.489.489,0,0,1,.486-.49A5.39,5.39,0,0,1,3.785,1.7,8.109,8.109,0,0,1,5.663,2.965L6,3.287,5.078,4.2,4.141,3.27a.662.662,0,0,0-.932.94l.928.92Zm-.5,9.308-.007.007-1.15-1.166.024-.025a.794.794,0,0,1,1.133,0,.844.844,0,0,1,0,1.18Zm14.017-1.587-.466-.468,0,0a2.122,2.122,0,0,0-2.46-.395L10.791,9.862a.662.662,0,1,0-.932.94l3,2.979a2.12,2.12,0,0,0,.382,2.507l.463.466a.662.662,0,0,0,.935.005l2.111-2.081a.662.662,0,0,0,0-.939Zm-2.575,1.613,0,0A.794.794,0,0,1,14.1,14.3a.669.669,0,0,0,.11-.088.8.8,0,0,1,1.139-.008Zm0,0" transform="translate(0 11.985) rotate(-45)"/></svg>