<svg class="icon" xmlns="http://www.w3.org/2000/svg" width="22" height="22" viewBox="0 0 22 22"><rect  width="3" height="7" rx="0.25" transform="translate(2 2)"/><rect  width="4" height="4" rx="0.25" transform="translate(16 2)"/><rect  width="4" height="4" rx="0.25" transform="translate(16 9)"/><rect  width="4" height="4" rx="0.25" transform="translate(16 16)"/><path  d="M13.556,3.627a.31.31,0,0,1-.314.306,17.139,17.139,0,0,1-4.492-.665A13.853,13.853,0,0,0,5.3,2.718.306.306,0,0,1,5,2.412V1.8A.312.312,0,0,1,5.316,1.5a15.051,15.051,0,0,1,3.737.59,16.133,16.133,0,0,0,4.2.627.306.306,0,0,1,.306.306Z" transform="translate(1.111 0.333)"/><path  d="M13.556,10.3a.306.306,0,0,1-.305.306h-.016C11.44,10.463,10.659,9.1,9.9,7.789,8.967,6.16,8.081,4.618,5.3,4.515a.306.306,0,0,1-.3-.3V3.606A.309.309,0,0,1,5.312,3.3h0C8.8,3.419,10,5.5,10.963,7.188c.749,1.3,1.25,2.085,2.3,2.2a.312.312,0,0,1,.289.306Z" transform="translate(1.111 0.733)"/><path  d="M13.556,17.387a.312.312,0,0,1-.361.306c-1.956-.263-2.811-2.68-3.715-5.229C8.518,9.751,7.524,6.951,5.288,6.73A.309.309,0,0,1,5,6.425V5.81A.306.306,0,0,1,5.305,5.5h.016c3.068.218,4.257,3.576,5.311,6.55.763,2.152,1.486,4.193,2.7,4.418a.293.293,0,0,1,.225.294Z" transform="translate(1.111 1.223)"/></svg>