<svg class="icon" xmlns="http://www.w3.org/2000/svg" width="12.826" height="19.921" viewBox="0 0 12.826 19.921"><defs></defs><path d="M619.7,129.517c3.5-.009,6.352-2.559,6.4-5.731,0-5.163-5.168-6.644-6.175-14.027a.255.255,0,0,0-.475,0c-1.007,7.384-6.175,8.9-6.175,14.027.042,3.183,2.908,5.741,6.422,5.731ZM617.4,118.9a14.582,14.582,0,0,0,.893-1.188.406.406,0,0,1,.589,0,.315.315,0,0,1,0,.293,2.667,2.667,0,0,1-.209.706,16.782,16.782,0,0,0-.988,5.163,1.325,1.325,0,0,1-2.641.207A7.794,7.794,0,0,1,617.4,118.9Z" transform="translate(-613.28 -109.596)"/></svg>