<svg class="icon" version="1.0" xmlns="http://www.w3.org/2000/svg"
 width="24" height="24" viewBox="0 0 231.000000 218.000000"
 preserveAspectRatio="xMidYMid meet">

<g transform="translate(0.000000,218.000000) scale(0.100000,-0.100000)"
 stroke="none">
<path d="M1030 2151 c-6 -13 -10 -143 -10 -354 l0 -335 33 -28 32 -27 3 352 2
351 575 0 575 0 0 -1020 0 -1020 -145 0 -145 0 -2 247 -3 248 -122 3 -123 3 0
-281 0 -280 305 0 305 0 0 1064 c0 954 -2 1066 -16 1080 -14 14 -85 16 -634
16 -602 0 -620 -1 -630 -19z"/>
<path d="M1250 1820 l0 -110 95 0 95 0 0 110 0 110 -95 0 -95 0 0 -110z"/>
<path d="M1570 1820 l0 -110 95 0 95 0 0 110 0 110 -95 0 -95 0 0 -110z"/>
<path d="M1890 1820 l0 -110 95 0 95 0 0 110 0 110 -95 0 -95 0 0 -110z"/>
<path d="M1250 1390 l0 -110 95 0 95 0 0 110 0 110 -95 0 -95 0 0 -110z"/>
<path d="M1570 1390 l0 -110 95 0 95 0 0 110 0 110 -95 0 -95 0 0 -110z"/>
<path d="M1890 1390 l0 -110 95 0 95 0 0 110 0 110 -95 0 -95 0 0 -110z"/>
<path d="M396 1134 c-259 -202 -372 -297 -383 -320 -35 -72 14 -148 92 -142
l40 3 3 -333 2 -332 30 0 30 0 0 345 c0 315 2 347 18 363 43 43 522 419 546
428 11 4 351 -260 499 -388 l57 -50 0 -349 0 -349 35 0 35 0 0 333 0 332 45
-3 c39 -4 49 0 75 26 35 35 41 92 14 130 -18 26 -731 583 -754 589 -10 3 -159
-107 -384 -283z"/>
<path d="M1570 1046 c0 -18 17 -36 65 -72 58 -45 64 -52 65 -86 0 -35 2 -38
30 -38 l30 0 0 110 0 110 -95 0 c-93 0 -95 0 -95 -24z"/>
<path d="M1890 960 l0 -110 95 0 95 0 0 110 0 110 -95 0 -95 0 0 -110z"/>
<path d="M710 677 c-64 -18 -117 -53 -151 -100 -48 -66 -59 -122 -59 -299 l0
-158 275 0 275 0 0 168 c0 194 -10 236 -70 305 -65 74 -180 109 -270 84z m40
-152 l0 -115 -100 0 -100 0 0 27 c0 80 108 194 193 202 4 1 7 -51 7 -114z
m132 89 c63 -32 103 -90 122 -176 l6 -28 -105 0 -105 0 0 115 0 115 28 -6 c15
-4 39 -13 54 -20z m-132 -354 l0 -100 -100 0 -100 0 0 100 0 100 100 0 100 0
0 -100z m258 3 l-3 -98 -102 -3 -103 -3 0 101 0 100 105 0 106 0 -3 -97z"/>
<path d="M450 40 c0 -20 7 -20 325 -20 318 0 325 0 325 20 0 20 -7 20 -325 20
-318 0 -325 0 -325 -20z"/>
</g>
</svg>
