<svg class="icon" xmlns="http://www.w3.org/2000/svg" width="18.008" height="17.333" viewBox="0 0 18.008 17.333"><path d="M737.951,300.22a6.941,6.941,0,0,0,0,13.882,6.851,6.851,0,0,0,4.363-1.55.705.705,0,0,0,.18.288l4.327,4.327a1.244,1.244,0,0,0,1.8,0,1.226,1.226,0,0,0,0-1.8l-4.309-4.309a1.263,1.263,0,0,0-.415-.27,6.76,6.76,0,0,0,1.064-3.606,6.941,6.941,0,0,0-7.013-6.959Zm0,2.145a4.8,4.8,0,0,1,4.8,4.8,4.74,4.74,0,0,1-.739,2.542l-.433.7-.613.487a4.723,4.723,0,0,1-3.011,1.064,4.8,4.8,0,1,1,0-9.591Z" transform="translate(-731.01 -300.22)"/></svg>