<svg class="icon" xmlns="http://www.w3.org/2000/svg" width="13.131" height="16.049" viewBox="0 0 13.131 16.049"><path  d="M17.049,11.754H15.59v1.459h1.459Zm0-2.918H15.59V10.3h1.459Zm0,5.836H15.59v1.459A1.569,1.569,0,0,0,17.049,14.672ZM11.213,3H9.754V4.459h1.459Zm5.836,2.918H15.59V7.377h1.459ZM15.59,3V4.459h1.459A1.569,1.569,0,0,0,15.59,3ZM2.459,16.131H8.3V11.754H1v2.918A1.463,1.463,0,0,0,2.459,16.131Zm0-10.213H1V7.377H2.459Zm8.754,8.754H9.754v1.459h1.459ZM14.131,3H12.672V4.459h1.459Zm0,11.672H12.672v1.459h1.459ZM2.459,3A1.569,1.569,0,0,0,1,4.459H2.459Zm0,5.836H1V10.3H2.459ZM8.3,3H6.836V4.459H8.3ZM5.377,3H3.918V4.459H5.377Z" transform="translate(-3 17.049) rotate(-90)"/></svg>