<svg class="icon" xmlns="http://www.w3.org/2000/svg" fill="#ffffff" width="18.431" height="18.426" viewBox="0 0 18.431 18.426"><path d="M23.967,11.42l-2.15-.878a6.724,6.724,0,0,0-.009-2.578l2.158-.908a.664.664,0,0,0,.355-.869l-.554-1.312A.663.663,0,0,0,22.9,4.52h0l-2.159.905A6.728,6.728,0,0,0,18.9,3.616l.878-2.15A.664.664,0,0,0,19.415.6L18.187.1a.664.664,0,0,0-.865.364l-.878,2.15a6.728,6.728,0,0,0-2.578.009L12.956.468a.663.663,0,0,0-.869-.355h0L10.775.664a.664.664,0,0,0-.355.869l.905,2.159A6.722,6.722,0,0,0,9.516,5.529l-2.15-.878a.664.664,0,0,0-.865.364L6,6.244a.664.664,0,0,0,.364.865l2.15.878a6.724,6.724,0,0,0,.009,2.578l-2.158.908a.664.664,0,0,0-.355.869l.552,1.312a.663.663,0,0,0,.869.355h0L9.589,13.1a6.728,6.728,0,0,0,1.837,1.809l-.878,2.15a.664.664,0,0,0,.364.865l1.229.5a.664.664,0,0,0,.865-.364l.878-2.15a6.723,6.723,0,0,0,2.578-.009l.908,2.158a.663.663,0,0,0,.869.355h0l1.312-.552a.664.664,0,0,0,.355-.869L19,14.838A6.721,6.721,0,0,0,20.814,13l2.15.878a.663.663,0,0,0,.865-.363h0l.5-1.229a.664.664,0,0,0-.363-.866Zm-8.8,1.061a3.216,3.216,0,1,1,3.216-3.216A3.216,3.216,0,0,1,15.165,12.481Z" transform="translate(-5.95 -0.05)"/></svg>