<svg class="icon" xmlns="http://www.w3.org/2000/svg" width="17.627" height="17.626" viewBox="0 0 17.627 17.626"><path  d="M10.21,8.573V3.553A.553.553,0,0,0,9.658,3H8.553A.553.553,0,0,0,8,3.553V9.4a.552.552,0,0,0,.162.391l3.1,3.1a.553.553,0,0,0,.781,0h0l.738-.738a.553.553,0,0,0,0-.781h0L10.372,8.964A.553.553,0,0,1,10.21,8.573Z" transform="translate(-0.26 -0.849)"/><path  d="M13.242,3.541a7.826,7.826,0,0,1,1.451,1.437l.963-.553A8.936,8.936,0,0,0,13.8,2.582Z" transform="translate(0.291 -0.893)"/><path  d="M17.1,8.341a8.821,8.821,0,0,0-.678-2.536l-.963.556a7.723,7.723,0,0,1,.523,1.98Z" transform="translate(0.524 -0.554)"/><path  d="M12.428,1.744A8.833,8.833,0,0,0,9.9,1.056V2.173a7.8,7.8,0,0,1,1.974.532Z" transform="translate(-0.061 -1.053)"/><path  d="M17.506,10.83a7.732,7.732,0,1,1-8.66-8.66V1.053a8.841,8.841,0,1,0,9.776,9.776Z" transform="translate(-0.996 -1.053)"/></svg>