<svg class="icon" xmlns="http://www.w3.org/2000/svg" width="23.135" height="23.135" viewBox="0 0 23.135 23.135"><defs></defs><path d="M17.064,11.269a5.8,5.8,0,1,0,5.795,5.8A5.8,5.8,0,0,0,17.064,11.269Z" transform="translate(-5.496 -5.496)"/><g transform="translate(10.437)"><path d="M21.5,4.07a1.13,1.13,0,0,1-1.131-1.13V1.131a1.131,1.131,0,0,1,2.261,0V2.94A1.131,1.131,0,0,1,21.5,4.07Z" transform="translate(-20.373)"/></g><g transform="translate(10.437 19.065)"><path  d="M21.5,37.215a1.131,1.131,0,0,0-1.131,1.131v1.808a1.131,1.131,0,1,0,2.261,0V38.346A1.131,1.131,0,0,0,21.5,37.215Z" transform="translate(-20.373 -37.215)"/></g><g transform="translate(16.538 3.057)"><path  d="M32.613,9.176a1.131,1.131,0,0,1,0-1.6L33.892,6.3a1.131,1.131,0,1,1,1.6,1.6L34.212,9.176A1.13,1.13,0,0,1,32.613,9.176Z" transform="translate(-32.282 -5.967)"/></g><g transform="translate(3.057 16.538)"><path  d="M9.176,32.614a1.13,1.13,0,0,0-1.6,0L6.3,33.893a1.131,1.131,0,1,0,1.6,1.6l1.279-1.28A1.129,1.129,0,0,0,9.176,32.614Z" transform="translate(-5.967 -32.283)"/></g><g transform="translate(19.065 10.437)"><path  d="M37.215,21.5a1.131,1.131,0,0,1,1.131-1.131h1.809a1.13,1.13,0,1,1,0,2.261H38.346A1.13,1.13,0,0,1,37.215,21.5Z" transform="translate(-37.215 -20.373)"/></g><g transform="translate(0 10.437)"><path  d="M4.07,21.5a1.131,1.131,0,0,0-1.131-1.131H1.131a1.13,1.13,0,1,0,0,2.261H2.94A1.13,1.13,0,0,0,4.07,21.5Z" transform="translate(0 -20.373)"/></g><g transform="translate(16.538 16.539)"><path  d="M32.613,32.615a1.131,1.131,0,0,1,1.6,0l1.279,1.279a1.13,1.13,0,1,1-1.6,1.6l-1.279-1.279A1.13,1.13,0,0,1,32.613,32.615Z" transform="translate(-32.282 -32.284)"/></g><g transform="translate(3.057 3.057)"><path  d="M9.176,9.176a1.13,1.13,0,0,0,0-1.6L7.9,6.3A1.13,1.13,0,1,0,6.3,7.9L7.577,9.176A1.13,1.13,0,0,0,9.176,9.176Z" transform="translate(-5.967 -5.967)"/></g></svg>