<svg class="icon" xmlns="http://www.w3.org/2000/svg" width="22.415" height="18.769" viewBox="0 0 22.415 18.769"><defs></defs><path d="M19.554,12.792a3.343,3.343,0,1,0-6.686,0,.953.953,0,0,0,1.907,0,1.435,1.435,0,0,1,2.871,0,1.906,1.906,0,0,1-1.9,1.9H.955a.957.957,0,0,0,0,1.914H15.743A3.819,3.819,0,0,0,19.554,12.792Z" transform="translate(0 -6.653)"/><path d="M.715,9.806h5.3a3.249,3.249,0,0,0,3.24-3.247,2.826,2.826,0,1,0-5.652,0,.715.715,0,1,0,1.431,0,1.4,1.4,0,1,1,2.79,0A1.815,1.815,0,0,1,6.014,8.37H.715a.718.718,0,0,0,0,1.435Z" transform="translate(0 -3.73)"/><path d="M22.6,27.5H8.76a.957.957,0,0,0,0,1.914H22.6a1.9,1.9,0,0,1,1.9,1.9,1.435,1.435,0,0,1-2.871,0,.953.953,0,1,0-1.907,0,3.343,3.343,0,0,0,6.685,0A3.815,3.815,0,0,0,22.6,27.5Z" transform="translate(-3.992 -15.882)"/></svg>